<svg width="68" height="15" viewBox="0 0 68 15" fill="none" xmlns="http://www.w3.org/2000/svg">
<path d="M20.7098 10.3408H15.8198L14.6469 13.8094H12.5749L17.2069 0.978231H19.3578L23.9898 13.8094H21.8828L20.7098 10.3408ZM16.3272 8.74086H20.2024L18.2903 3.11208H18.2376L16.3272 8.74086ZM25.0819 4.45385H26.9133V6.04501H26.9572C27.268 4.95087 28.1038 4.30281 29.2065 4.30281C29.4821 4.30281 29.7227 4.34672 29.8649 4.37482V6.16268C29.7139 6.10121 29.3768 6.05555 29.0028 6.05555C27.7667 6.05555 27.0029 6.88274 27.0029 8.20696V13.8094H25.0819V4.45385ZM36.8884 7.67306C36.6935 6.67726 35.9455 5.88519 34.6935 5.88519C33.2081 5.88519 32.2318 7.12159 32.2318 9.13074C32.2318 11.1856 33.2186 12.3763 34.7128 12.3763C35.8945 12.3763 36.6689 11.7265 36.8901 10.6429H38.739C38.5336 12.6345 36.9428 13.9868 34.6935 13.9868C32.0176 13.9868 30.2758 12.155 30.2758 9.1325C30.2758 6.16268 32.0176 4.28701 34.676 4.28701C37.085 4.28701 38.5512 5.83426 38.7215 7.67481L36.8884 7.67306ZM39.7258 11.1504C39.7258 9.51361 40.9795 8.50903 43.2024 8.38434L45.7625 8.2333V7.51324C45.7625 6.47354 45.0602 5.85007 43.8872 5.85007C42.7758 5.85007 42.0822 6.38397 41.9136 7.21994H40.0998C40.2069 5.53043 41.6468 4.28525 43.9575 4.28525C46.2243 4.28525 47.6729 5.48477 47.6729 7.3622V13.8094H45.8327V12.2709H45.7888C45.2463 13.3106 44.0646 13.9692 42.8372 13.9692C41.0059 13.9692 39.7258 12.8312 39.7258 11.1504ZM45.7625 10.3057V9.56805L43.4606 9.71031C42.314 9.79109 41.6643 10.2969 41.6643 11.0977C41.6643 11.9162 42.3403 12.4501 43.371 12.4501C44.7125 12.4483 45.7625 11.5245 45.7625 10.3057ZM49.0231 9.1325C49.0231 6.18024 50.5876 4.30457 52.9352 4.30457C54.2767 4.30457 55.3442 4.98073 55.8692 6.01164H55.9044V0.978231H57.834V13.8094H55.9658V12.2182H55.9307C55.3794 13.2843 54.3135 13.9692 52.9528 13.9692C50.5876 13.9692 49.0231 12.083 49.0231 9.1325ZM50.9879 9.1325C50.9879 11.1065 51.9396 12.3429 53.4602 12.3429C54.9351 12.3429 55.9219 11.089 55.9219 9.1325C55.9219 7.1936 54.9351 5.92208 53.4602 5.92208C51.9396 5.92208 50.9879 7.16726 50.9879 9.1325ZM67.6528 11.0609C67.3859 12.7679 65.7688 13.9868 63.6266 13.9868C60.8805 13.9868 59.2177 12.1287 59.2177 9.17641C59.2177 6.24171 60.9068 4.28525 63.5476 4.28525C66.1428 4.28525 67.7617 6.11702 67.7617 8.95336V9.61196H61.1561V9.72787C61.1561 11.3542 62.1342 12.4307 63.6723 12.4307C64.7662 12.4307 65.5739 11.8793 65.832 11.0609C65.8302 11.0609 67.6528 11.0609 67.6528 11.0609ZM61.1632 8.26843H65.839C65.7951 6.83708 64.8873 5.83251 63.5459 5.83251C62.2044 5.83251 61.2615 6.85464 61.1632 8.26843ZM7.727 2.23044C8.20635 1.6298 8.53294 0.823681 8.4469 0C7.74456 0.035125 6.8877 0.46365 6.39079 1.06429C5.9448 1.57887 5.55149 2.41836 5.65333 3.20867C6.44171 3.27716 7.23009 2.81351 7.727 2.23044ZM8.43812 3.36146C7.2933 3.29297 6.3188 4.01128 5.77273 4.01128C5.2249 4.01128 4.38735 3.39483 3.48308 3.41239C2.3049 3.42996 1.21099 4.09558 0.612245 5.15635C-0.618615 7.2779 0.287411 10.4251 1.48491 12.1515C2.0661 13.0068 2.76669 13.9481 3.68852 13.913C4.56118 13.8796 4.90182 13.3475 5.96236 13.3475C7.02114 13.3475 7.32842 13.913 8.252 13.8955C9.20895 13.8779 9.8077 13.0402 10.3889 12.1849C11.0561 11.2101 11.3283 10.2688 11.3458 10.2179C11.3283 10.2003 9.50042 9.49956 9.48286 7.39557C9.4653 5.63405 10.9192 4.79632 10.9859 4.74363C10.1641 3.53358 8.88236 3.39659 8.43812 3.36146Z" fill="black"/>
</svg>
