<svg width="78" height="14" viewBox="0 0 78 14" fill="none" xmlns="http://www.w3.org/2000/svg">
<path d="M13.667 13.6406V0.954979H21.5881V2.65137H15.636V6.66922H21.0863V8.33089H15.636V13.6406H13.667ZM22.9147 1.94816C22.9147 1.34218 23.4061 0.857745 24.0138 0.857745C24.6198 0.857745 25.1129 1.34218 25.1129 1.94816C25.1129 2.54545 24.6215 3.03857 24.0138 3.03857C23.4061 3.03857 22.9147 2.54719 22.9147 1.94816ZM23.064 4.3929H24.9636V13.6406H23.064V4.3929ZM29.6551 2.2034V4.3929H31.4123V5.89656H29.6551V10.9944C29.6551 11.7949 30.0058 12.1543 30.7802 12.1543C30.973 12.1543 31.282 12.1369 31.4036 12.1109V13.6145C31.1935 13.6666 30.7716 13.7031 30.3479 13.7031C28.4761 13.7031 27.7451 12.9912 27.7451 11.2062V5.89656H26.3995V4.3929H27.7451V2.2034H29.6551ZM33.0062 4.3929H34.8172V5.93997H34.8606C35.3624 4.88428 36.3469 4.2349 37.7707 4.2349C39.8109 4.2349 40.9794 5.5354 40.9794 7.65372V13.6406H39.0712V8.02356C39.0712 6.6345 38.4201 5.87052 37.1022 5.87052C35.7652 5.87052 34.904 6.82028 34.904 8.25275V13.6423H33.0045V4.3929H33.0062ZM50.5587 10.9232C50.2948 12.6109 48.6956 13.8159 46.5773 13.8159C43.8617 13.8159 42.2174 11.9789 42.2174 9.06014C42.2174 6.15875 43.8878 4.22448 46.4992 4.22448C49.0655 4.22448 50.6664 6.03547 50.6664 8.83963V9.49075H44.1343V9.60535C44.1343 11.2132 45.1014 12.2776 46.6225 12.2776C47.7042 12.2776 48.5046 11.7323 48.7581 10.9232H50.5587ZM44.1413 8.1642H48.7651C48.7217 6.7491 47.824 5.75592 46.4975 5.75592C45.1692 5.75592 44.2368 6.76646 44.1413 8.1642ZM55.5159 4.22622C57.669 4.22622 59.0667 5.42254 59.1292 7.12761H57.3443C57.2384 6.23167 56.5803 5.6691 55.5159 5.6691C54.488 5.6691 53.8022 6.1709 53.8022 6.90884C53.8022 7.48877 54.2241 7.88465 55.226 8.11385L56.7296 8.4559C58.6205 8.89519 59.341 9.63313 59.341 10.9701C59.341 12.6578 57.7679 13.8177 55.5871 13.8177C53.2743 13.8177 51.8853 12.6839 51.7099 10.925H53.5903C53.7657 11.8921 54.4255 12.3661 55.5854 12.3661C56.7279 12.3661 57.4311 11.8921 57.4311 11.1351C57.4311 10.5378 57.089 10.1853 56.0768 9.95609L54.5731 9.60535C52.8142 9.20079 51.9443 8.35693 51.9443 7.01128C51.9478 5.36004 53.3889 4.22622 55.5159 4.22622ZM64.1038 4.22622C66.2568 4.22622 67.6546 5.42254 67.7171 7.12761H65.9321C65.8262 6.23167 65.1682 5.6691 64.1038 5.6691C63.0759 5.6691 62.39 6.1709 62.39 6.90884C62.39 7.48877 62.812 7.88465 63.8138 8.11385L65.3175 8.4559C67.2083 8.89519 67.9289 9.63313 67.9289 10.9701C67.9289 12.6578 66.3558 13.8177 64.175 13.8177C61.8622 13.8177 60.4731 12.6839 60.2978 10.925H62.1782C62.3536 11.8921 63.0134 12.3661 64.1732 12.3661C65.3157 12.3661 66.019 11.8921 66.019 11.1351C66.019 10.5378 65.6769 10.1853 64.6646 9.95609L63.161 9.60535C61.4021 9.20079 60.5322 8.35693 60.5322 7.01128C60.5339 5.36004 61.9768 4.22622 64.1038 4.22622ZM74.3464 13.6527H72.6153V9.8849H69.028V8.17115H72.6153V4.40506H74.3464V8.17115H77.9423V9.8849H74.3464V13.6527ZM7.63676 2.19471C8.11773 1.61305 8.44068 0.803918 8.35213 0C7.66107 0.0277812 6.82416 0.460126 6.32757 1.0418C5.88308 1.55575 5.4924 2.3805 5.59832 3.16879C6.36925 3.22783 7.15754 2.77638 7.63676 2.19471ZM8.33477 3.32159C7.20268 3.23825 6.24249 3.95361 5.70771 3.95361C5.16424 3.95361 4.32559 3.33895 3.43833 3.35632C2.27152 3.37368 1.19673 4.03522 0.594229 5.08049C-0.617726 7.18318 0.285163 10.2999 1.46586 12.0067C2.04406 12.8401 2.73165 13.7812 3.63627 13.7465C4.50617 13.7118 4.83607 13.1839 5.88828 13.1839C6.9405 13.1839 7.23741 13.7465 8.15766 13.7309C9.09528 13.7135 9.6891 12.8801 10.2621 12.0414C10.9254 11.0743 11.198 10.1367 11.2136 10.0863C11.1928 10.0776 9.38698 9.38484 9.36962 7.30472C9.35399 5.56492 10.7899 4.72975 10.8542 4.68808C10.0381 3.48654 8.77927 3.35458 8.33477 3.32159Z" fill="black"/>
</svg>
