<svg width="46" height="11" viewBox="0 0 46 11" fill="none" xmlns="http://www.w3.org/2000/svg">
<path d="M19.2915 10.6544V3.36853H19.2441L16.2593 10.6544H15.1207L12.1265 3.36853H12.0791V10.6544H10.6788V0.754735H12.4559L15.6602 8.64355H15.7158L18.9134 0.754735H20.6972V10.6544H19.2915ZM28.4383 10.6544H27.0177V9.43351H26.9839C26.5853 10.298 25.852 10.7844 24.7473 10.7844C23.1763 10.7844 22.2153 9.76278 22.2153 8.10832V3.43628H23.6982V7.81971C23.6982 8.91726 24.22 9.50668 25.2421 9.50668C26.3129 9.50668 26.9581 8.7655 26.9581 7.64085V3.43628H28.441L28.4383 10.6544ZM32.5006 3.3062C34.1814 3.3062 35.2726 4.2398 35.3214 5.57041H33.928C33.8453 4.87123 33.3315 4.43221 32.5006 4.43221C31.6982 4.43221 31.1628 4.8238 31.1628 5.39968C31.1628 5.85225 31.4922 6.16119 32.2743 6.34005L33.4481 6.60698C34.9242 6.9498 35.4868 7.52567 35.4868 8.56902C35.4868 9.88608 34.2587 10.7912 32.5562 10.7912C30.7507 10.7912 29.6663 9.90641 29.5294 8.53379H30.9988C31.1357 9.28853 31.6508 9.65844 32.5562 9.65844C33.4481 9.65844 33.9971 9.28853 33.9971 8.69775C33.9971 8.23163 33.7301 7.95656 32.9398 7.7777L31.766 7.50399C30.3929 7.18828 29.7138 6.52975 29.7138 5.47962C29.7138 4.19102 30.8402 3.3062 32.5006 3.3062ZM36.5223 1.53657C36.5128 1.06097 36.891 0.668015 37.3668 0.65853C37.8426 0.649045 38.2357 1.02709 38.2451 1.5027C38.2546 1.9783 37.8765 2.37125 37.4007 2.38074C37.3939 2.38074 37.3871 2.38074 37.3804 2.38074C36.91 2.38345 36.5264 2.00676 36.5223 1.53657ZM36.6389 3.43628H38.1218V10.653H36.6389V3.43628ZM44.3787 5.92C44.2282 5.15171 43.6508 4.54061 42.6843 4.54061C41.5376 4.54061 40.784 5.49453 40.784 7.04465C40.784 8.63 41.5457 9.54869 42.6992 9.54869C43.6115 9.54869 44.2092 9.04734 44.38 8.2113H45.8073C45.6488 9.74787 44.4207 10.7912 42.6843 10.7912C40.6186 10.7912 39.2739 9.37796 39.2739 7.046C39.2739 4.7547 40.6186 3.30756 42.6708 3.30756C44.5305 3.30756 45.6623 4.50131 45.7938 5.92135L44.3787 5.92ZM5.97128 1.72085C6.3725 1.24118 6.57176 0.624655 6.52703 0C5.91164 0.058265 5.34234 0.3523 4.93977 0.82113C4.59548 1.21815 4.29185 1.86584 4.37047 2.47559C4.97908 2.52843 5.58768 2.17071 5.97128 1.72085ZM6.5189 2.59347C5.63513 2.54063 4.88284 3.09482 4.46128 3.09482C4.03838 3.09482 3.39181 2.61922 2.69374 2.63277C1.76796 2.6558 0.92485 3.16799 0.477543 3.97828C-0.472645 5.61512 0.22678 8.04328 1.15121 9.37525C1.59988 10.0351 2.14071 10.7614 2.85234 10.7343C3.52601 10.7086 3.78897 10.298 4.60768 10.298C5.42503 10.298 5.66223 10.7343 6.37521 10.7208C7.11395 10.7072 7.57617 10.0609 8.02483 9.40099C8.34336 8.93352 8.59142 8.42268 8.76356 7.88339C8.75001 7.86984 7.33896 7.3292 7.3254 5.70591C7.31185 4.34684 8.43418 3.70051 8.48569 3.65986C7.85268 2.72626 6.86319 2.62057 6.5189 2.59347Z" fill="black"/>
</svg>
